{
.appVersion = 961;
copyright = "Copyright 2017 Google Inc. All Rights Reserved.";
customParameters = (
{
name = glyphOrder;
value = (
.notdef,
NULL,
CR,
space,
He,
Lamed,
Het,
Mem,
Qof,
Waw,
Shin,
Resh,
Beth,
Taw,
Sat,
Kaph,
Nun,
Kheth,
Sadhe,
Samekh,
Fe,
Aleph,
Ain,
Dhadhe,
Gimel,
Daleth,
Ghayn,
Teth,
Zayin,
Dhaleth,
Yeh,
Thaw,
Theth,
NumberOne,
Number,
NumberMarker,
uni00A0
);
},
{
name = description;
value = "Designed by Monotype design team.";
},
{
name = license;
value = "This Font Software is licensed under the SIL Open Font License, Version 1.1. This Font Software is distributed on an \"AS IS\" BASIS, WITHOUT WARRANTIES OR CONDITIONS OF ANY KIND, either express or implied. See the SIL Open Font License for the specific language, permissions and limitations governing your use of this Font Software.";
},
{
name = licenseURL;
value = "http://scripts.sil.org/OFL";
},
{
name = vendorID;
value = GOOG;
},
{
name = unicodeRanges;
value = (
0,
1,
57
);
},
{
name = trademark;
value = "Noto is a trademark of Google Inc.";
},
{
name = "Has WWS Names";
value = 1;
},
{
name = versionString;
value = "Version 1.900";
},
{
name = fsType;
value = (
);
}
);
date = "2017-01-13 17:15:02 +0000";
designer = "Monotype Design Team";
designerURL = "http://www.monotype.com/studio";
disablesAutomaticAlignment = 1;
disablesNiceNames = 1;
familyName = "Noto Sans Old South Arabian";
fontMaster = (
{
alignmentZones = (
"{1069, 15}",
"{859, 15}",
"{536, 15}",
"{0, -15}",
"{-293, -15}"
);
ascender = 1069;
capHeight = 859;
customParameters = (
{
name = typoAscender;
value = 1069;
},
{
name = typoDescender;
value = -293;
},
{
name = typoLineGap;
value = 0;
},
{
name = winAscent;
value = 1069;
},
{
name = winDescent;
value = 293;
},
{
name = hheaAscender;
value = 1069;
},
{
name = hheaDescender;
value = -293;
},
{
name = hheaLineGap;
value = 0;
},
{
name = underlinePosition;
value = -100;
},
{
name = underlineThickness;
value = 50;
},
{
name = panose;
value = (
2,
11,
5,
2,
4,
5,
4,
2,
2,
4

glyphs = (
{
glyphname = .notdef;
lastChange = "2017-01-13 16:56:44 +0000";
layers = (
{
layerId = UUID0;
paths = (
{
closed = 1;
nodes = (
"450 0 LINE",
"450 714 LINE",
"50 714 LINE",
"50 0 LINE"
);
},
{
closed = 1;
nodes = (
"98 666 LINE",
"402 666 LINE",
"402 48 LINE",
"98 48 LINE"
);
}
);
width = 500;
}
);
},
{
glyphname = He;
lastChange = "2017-01-13 16:56:44 +0000";
layers = (
{
layerId = UUID0;
paths = (
{
closed = 1;
nodes = (
"378 0 LINE",
"378 498 LINE",
"503 509 OFFCURVE",
"566 577 OFFCURVE",
"566 691 CURVE SMOOTH",
"566 859 LINE",
"483 859 LINE",
"483 694 LINE SMOOTH",
"483 604 OFFCURVE",
"428 572 OFFCURVE",
"337 572 CURVE SMOOTH",
"246 572 OFFCURVE",
"190 604 OFFCURVE",
"190 694 CURVE SMOOTH",
"190 859 LINE",
"107 859 LINE",
"107 691 LINE SMOOTH",
"107 577 OFFCURVE",
"171 510 OFFCURVE",
"295 498 CURVE",
"295 0 LINE"
);
}
);
width = 674;
}
);
unicode = 10A60;
},
{
glyphname = Lamed;
lastChange = "2017-01-13 16:56:44 +0000";
layers = (
{
layerId = UUID0;
paths = (
{
closed = 1;
nodes = (
"356 0 LINE",
"356 874 LINE",
"49 702 LINE",
"85 636 LINE",
"273 741 LINE",
"273 0 LINE"
);
}
);
width = 463;
}
);
unicode = 10A61;
},
{
glyphname = Het;
lastChange = "2017-01-13 16:56:44 +0000";
layers = (
{
layerId = UUID0;
paths = (
{
closed = 1;
nodes = (
"378 0 LINE",
"378 498 LINE",
"503 509 OFFCURVE",
"566 577 OFFCURVE",
"566 691 CURVE SMOOTH",
"566 859 LINE",
"483 859 LINE",
"483 694 LINE SMOOTH",
"483 618 OFFCURVE",
"444 583 OFFCURVE",
"378 574 CURVE",
"378 859 LINE",
"295 859 LINE",
"295 574 LINE",
"229 583 OFFCURVE",
"190 618 OFFCURVE",
"190 694 CURVE SMOOTH",
"190 859 LINE",
"107 859 LINE",
"107 691 LINE SMOOTH",
"107 577 OFFCURVE",
"171 510 OFFCURVE",
"295 498 CURVE",
"295 0 LINE"
);
}
);
width = 674;
}
);
unicode = 10A62;
},
{
glyphname = Mem;
lastChange = "2017-01-13 16:56:44 +0000";
layers = (
{
layerId = UUID0;
paths = (
{
closed = 1;
nodes = (
"473 874 LINE",
"59 632 LINE",
"59 597 LINE",
"320 430 LINE",
"59 263 LINE",
"59 228 LINE",
"473 -15 LINE"
);
},
{
closed = 1;
nodes = (
"178 244 LINE",
"178 250 LINE",
"390 385 LINE",
"390 124 LINE"
);
},
{
closed = 1;
nodes = (
"178 609 LINE",
"178 616 LINE",
"390 736 LINE",
"390 474 LINE"
);
}
);
width = 580;
}
);
unicode = 10A63;
},
{
glyphname = Qof;
lastChange = "2017-01-13 16:56:44 +0000";
layers = (
{
layerId = UUID0;
paths = (
{
closed = 1;
nodes = (
"313 0 LINE",
"313 283 LINE",
"381 301 OFFCURVE",
"435 362 OFFCURVE",
"435 435 CURVE SMOOTH",
"435 508 OFFCURVE",
"381 570 OFFCURVE",
"313 588 CURVE",
"313 859 LINE",
"229 859 LINE",
"229 588 LINE",
"161 570 OFFCURVE",
"107 508 OFFCURVE",
"107 435 CURVE SMOOTH",
"107 362 OFFCURVE",
"161 301 OFFCURVE",
"229 283 CURVE",
"229 0 LINE"
);
},
{
closed = 1;
nodes = (
"226 353 OFFCURVE",
"188 390 OFFCURVE",
"188 436 CURVE SMOOTH",
"188 481 OFFCURVE",
"226 518 OFFCURVE",
"271 518 CURVE SMOOTH",
"317 518 OFFCURVE",
"354 481 OFFCURVE",
"354 436 CURVE SMOOTH",
"354 390 OFFCURVE",
"317 353 OFFCURVE",
"271 353 CURVE SMOOTH"
);
}
);
width = 542;
}
);
unicode = 10A64;
},
{
glyphname = Waw;
lastChange = "2017-01-13 16:56:44 +0000";
layers = (
{
layerId = UUID0;
paths = (
{
closed = 1;
nodes = (
"460 222 OFFCURVE",
"549 313 OFFCURVE",
"549 426 CURVE SMOOTH",
"549 540 OFFCURVE",
"460 633 OFFCURVE",
"313 633 CURVE SMOOTH",
"166 633 OFFCURVE",
"78 540 OFFCURVE",
"78 426 CURVE SMOOTH",
"78 313 OFFCURVE",
"166 222 OFFCURVE",
"313 222 CURVE SMOOTH"
);
},
{
closed = 1;
nodes = (
"195 313 OFFCURVE",
"159 366 OFFCURVE",
"159 427 CURVE SMOOTH",
"159 488 OFFCURVE",
"195 542 OFFCURVE",
"272 555 CURVE",
"272 299 LINE"
);
},
{
closed = 1;
nodes = (
"355 555 LINE",
"433 541 OFFCURVE",
"468 488 OFFCURVE",
"468 427 CURVE SMOOTH",
"468 366 OFFCURVE",
"433 313 OFFCURVE",
"355 299 CURVE"
);
}
);
width = 627;
}
);
unicode = 10A65;
},
{
glyphname = Shin;
lastChange = "2017-01-13 16:56:44 +0000";
layers = (
{
layerId = UUID0;
paths = (
{
closed = 1;
nodes = (
"399 224 LINE",
"399 253 LINE",
"189 430 LINE",
"399 606 LINE",
"399 635 LINE",
"78 874 LINE",
"78 776 LINE",
"282 624 LINE",
"282 617 LINE",
"78 444 LINE",
"78 415 LINE",
"282 242 LINE",
"282 236 LINE",
"78 83 LINE",
"78 -15 LINE"
);
}
);
width = 478;
}
);
unicode = 10A66;
},
{
glyphname = Resh;
lastChange = "2017-01-13 16:56:44 +0000";
layers = (
{
layerId = UUID0;
paths = (
{
closed = 1;
nodes = (
"292 31 OFFCURVE",
"394 244 OFFCURVE",
"394 428 CURVE SMOOTH",
"394 636 OFFCURVE",
"278 829 OFFCURVE",
"78 874 CURVE",
"78 793 LINE",
"227 751 OFFCURVE",
"308 588 OFFCURVE",
"308 428 CURVE SMOOTH",
"308 286 OFFCURVE",
"240 118 OFFCURVE",
"78 63 CURVE",
"78 -15 LINE"
);
}
);
width = 501;
}
);
unicode = 10A67;
},
{
glyphname = Beth;
lastChange = "2017-01-13 16:56:44 +0000";
layers = (
{
layerId = UUID0;
paths = (
{
closed = 1;
nodes = (
"190 0 LINE",
"190 786 LINE",
"376 786 LINE",
"376 0 LINE",
"459 0 LINE",
"459 859 LINE",
"107 859 LINE",
"107 0 LINE"
);
}
);
width = 566;
}
);
unicode = 10A68;
},
{
glyphname = Taw;
lastChange = "2017-01-13 16:56:44 +0000";
layers = (
{
layerId = UUID0;
paths = (
{
closed = 1;
nodes = (
"169 0 LINE",
"322 331 LINE",
"476 0 LINE",
"566 0 LINE",
"368 429 LINE",
"566 859 LINE",
"476 859 LINE",
"322 527 LINE",
"168 859 LINE",
"78 859 LINE",
"277 429 LINE",
"78 0 LINE"
);
}
);
width = 645;
}
);
unicode = 10A69;
},
{
glyphname = Sat;
lastChange = "2017-01-13 16:56:44 +0000";
layers = (
{
layerId = UUID0;
paths = (
{
closed = 1;
nodes = (
"190 0 LINE",
"190 415 LINE",
"376 415 LINE",
"376 0 LINE",
"459 0 LINE",
"459 488 LINE",
"325 488 LINE",
"325 859 LINE",
"242 859 LINE",
"242 488 LINE",
"107 488 LINE",
"107 0 LINE"
);
}
);
width = 566;
}
);
unicode = 10A6A;
},
{
glyphname = Kaph;
lastChange = "2017-01-13 16:56:44 +0000";
layers = (
{
layerId = UUID0;
paths = (
{
closed = 1;
nodes = (
"190 0 LINE",
"190 415 LINE",
"376 415 LINE",
"376 0 LINE",
"459 0 LINE",
"459 488 LINE",
"188 488 LINE",
"314 859 LINE",
"234 859 LINE",
"107 488 LINE",
"107 0 LINE"
);
}
);
width = 566;
}
);
unicode = 10A6B;
},
{
glyphname = Nun;
lastChange = "2017-01-13 16:56:44 +0000";
layers = (
{
layerId = UUID0;
paths = (
{
closed = 1;
nodes = (
"391 0 LINE",
"391 508 LINE",
"190 508 LINE",
"190 859 LINE",
"107 859 LINE",
"107 435 LINE",
"308 435 LINE",
"308 0 LINE"
);
}
);
width = 498;
}
);
unicode = 10A6C;
},
{
glyphname = Kheth;
lastChange = "2017-01-13 16:56:44 +0000";
layers = (
{
layerId = UUID0;
paths = (
{
closed = 1;
nodes = (
"549 0 LINE",
"549 317 LINE",
"378 317 LINE",
"378 498 LINE",
"503 510 OFFCURVE",
"566 577 OFFCURVE",
"566 691 CURVE SMOOTH",
"566 859 LINE",
"483 859 LINE",
"483 694 LINE SMOOTH",
"483 604 OFFCURVE",
"428 572 OFFCURVE",
"337 572 CURVE SMOOTH",
"246 572 OFFCURVE",
"190 604 OFFCURVE",
"190 694 CURVE SMOOTH",
"190 859 LINE",
"107 859 LINE",
"107 691 LINE SMOOTH",
"107 577 OFFCURVE",
"171 510 OFFCURVE",
"295 498 CURVE",
"295 244 LINE",
"466 244 LINE",
"466 0 LINE"
);
}
);
width = 674;
}
);
unicode = 10A6D;
},
{
glyphname = Sadhe;
lastChange = "2017-01-13 16:56:44 +0000";
layers = (
{
layerId = UUID0;
paths = (
{
closed = 1;
nodes = (
"190 0 LINE",
"190 165 LINE SMOOTH",
"190 241 OFFCURVE",
"229 275 OFFCURVE",
"295 285 CURVE",
"295 0 LINE",
"378 0 LINE",
"378 285 LINE",
"444 275 OFFCURVE",
"483 241 OFFCURVE",
"483 165 CURVE SMOOTH",
"483 0 LINE",
"566 0 LINE",
"566 168 LINE SMOOTH",
"566 283 OFFCURVE",
"503 350 OFFCURVE",
"378 361 CURVE",
"378 563 LINE",
"447 581 OFFCURVE",
"500 643 OFFCURVE",
"500 715 CURVE SMOOTH",
"500 803 OFFCURVE",
"424 874 OFFCURVE",
"337 874 CURVE SMOOTH",
"250 874 OFFCURVE",
"173 803 OFFCURVE",
"173 715 CURVE SMOOTH",
"173 643 OFFCURVE",
"227 581 OFFCURVE",
"295 563 CURVE",
"295 361 LINE",
"171 350 OFFCURVE",
"107 283 OFFCURVE",
"107 168 CURVE SMOOTH",
"107 0 LINE"
);
},
{
closed = 1;
nodes = (
"292 633 OFFCURVE",
"254 670 OFFCURVE",
"254 716 CURVE SMOOTH",
"254 761 OFFCURVE",
"292 798 OFFCURVE",
"337 798 CURVE SMOOTH",
"383 798 OFFCURVE",
"420 761 OFFCURVE",
"420 716 CURVE SMOOTH",
"420 670 OFFCURVE",
"383 633 OFFCURVE",
"337 633 CURVE SMOOTH"
);
}
);
width = 674;
}
);
unicode = 10A6E;
},
{
glyphname = Samekh;
lastChange = "2017-01-13 16:56:44 +0000";
layers = (
{
layerId = UUID0;
paths = (
{
closed = 1;
nodes = (
"173 0 LINE",
"272 145 LINE",
"371 0 LINE",
"466 0 LINE",
"320 215 LINE",
"466 430 LINE",
"320 645 LINE",
"466 860 LINE",
"371 860 LINE",
"272 714 LINE",
"173 860 LINE",
"78 860 LINE",
"225 645 LINE",
"78 430 LINE",
"225 215 LINE",
"78 0 LINE"
);
},
{
closed = 1;
nodes = (
"173 430 LINE",
"272 575 LINE",
"371 430 LINE",
"272 285 LINE"
);
}
);
width = 544;
}
);
unicode = 10A6F;
},
{
glyphname = Fe;
lastChange = "2017-01-13 16:56:44 +0000";
layers = (
{
layerId = UUID0;
paths = (
{
closed = 1;
nodes = (
"329 0 LINE",
"548 430 LINE",
"329 859 LINE",
"297 859 LINE",
"78 430 LINE",
"297 0 LINE"
);
},
{
closed = 1;
nodes = (
"173 430 LINE",
"313 716 LINE",
"454 430 LINE",
"313 144 LINE"
);
}
);
width = 626;
}
);
unicode = 10A70;
},
{
glyphname = Aleph;
lastChange = "2017-01-13 16:56:44 +0000";
layers = (
{
layerId = UUID0;
paths = (
{
closed = 1;
nodes = (
"190 0 LINE",
"190 415 LINE",
"376 415 LINE",
"376 0 LINE",
"459 0 LINE",
"459 488 LINE",
"325 488 LINE",
"325 695 LINE",
"190 695 LINE",
"190 859 LINE",
"107 859 LINE",
"107 622 LINE",
"242 622 LINE",
"242 488 LINE",
"107 488 LINE",
"107 0 LINE"
);
}
);
width = 566;
}
);
unicode = 10A71;
},
{
glyphname = Ain;
lastChange = "2017-01-13 16:56:44 +0000";
layers = (
{
layerId = UUID0;
paths = (
{
closed = 1;
nodes = (
"329 272 OFFCURVE",
"405 343 OFFCURVE",
"405 430 CURVE SMOOTH",
"405 518 OFFCURVE",
"329 589 OFFCURVE",
"242 589 CURVE SMOOTH",
"155 589 OFFCURVE",
"78 518 OFFCURVE",
"78 430 CURVE SMOOTH",
"78 343 OFFCURVE",
"155 272 OFFCURVE",
"242 272 CURVE SMOOTH"
);
},
{
closed = 1;
nodes = (
"197 348 OFFCURVE",
"159 385 OFFCURVE",
"159 431 CURVE SMOOTH",
"159 476 OFFCURVE",
"197 513 OFFCURVE",
"242 513 CURVE SMOOTH",
"288 513 OFFCURVE",
"325 476 OFFCURVE",
"325 431 CURVE SMOOTH",
"325 385 OFFCURVE",
"288 348 OFFCURVE",
"242 348 CURVE SMOOTH"
);
}
);
width = 483;
}
);
unicode = 10A72;
},
{
glyphname = Dhadhe;
lastChange = "2017-01-13 16:56:44 +0000";
layers = (
{
layerId = UUID0;
paths = (
{
closed = 1;
nodes = (
"459 0 LINE",
"459 859 LINE",
"107 859 LINE",
"107 0 LINE"
);
},
{
closed = 1;
nodes = (
"190 405 LINE",
"376 405 LINE",
"376 73 LINE",
"190 73 LINE"
);
},
{
closed = 1;
nodes = (
"190 786 LINE",
"376 786 LINE",
"376 479 LINE",
"190 479 LINE"
);
}
);
width = 566;
}
);
unicode = 10A73;
},
{
glyphname = Gimel;
lastChange = "2017-01-13 16:56:44 +0000";
layers = (
{
layerId = UUID0;
paths = (
{
closed = 1;
nodes = (
"374 0 LINE",
"374 859 LINE",
"59 859 LINE",
"59 786 LINE",
"291 786 LINE",
"291 0 LINE"
);
}
);
width = 481;
}
);
unicode = 10A74;
},
{
glyphname = Daleth;
lastChange = "2017-01-13 16:56:44 +0000";
layers = (
{
layerId = UUID0;
paths = (
{
closed = 1;
nodes = (
"370 0 LINE",
"370 859 LINE",
"287 859 LINE",
"287 542 LINE",
"85 682 LINE",
"59 682 LINE",
"59 202 LINE",
"85 202 LINE",
"287 341 LINE",
"287 0 LINE"
);
},
{
closed = 1;
nodes = (
"142 549 LINE",
"287 446 LINE",
"287 439 LINE",
"142 334 LINE"
);
}
);
width = 478;
}
);
unicode = 10A75;
},
{
glyphname = Ghayn;
lastChange = "2017-01-13 16:56:44 +0000";
layers = (
{
layerId = UUID0;
paths = (
{
closed = 1;
nodes = (
"302 0 LINE",
"302 786 LINE",
"488 786 LINE",
"488 0 LINE",
"571 0 LINE",
"571 859 LINE",
"219 859 LINE",
"49 594 LINE",
"119 556 LINE",
"219 714 LINE",
"219 0 LINE"
);
}
);
width = 678;
}
);
unicode = 10A76;
},
{
glyphname = Teth;
lastChange = "2017-01-13 16:56:44 +0000";
layers = (
{
layerId = UUID0;
paths = (
{
closed = 1;
nodes = (
"581 0 LINE",
"581 859 LINE",
"107 859 LINE",
"107 0 LINE"
);
},
{
closed = 1;
nodes = (
"190 786 LINE",
"303 786 LINE",
"303 74 LINE",
"190 74 LINE"
);
},
{
closed = 1;
nodes = (
"386 786 LINE",
"498 786 LINE",
"498 74 LINE",
"386 74 LINE"
);
}
);
width = 688;
}
);
unicode = 10A77;
},
{
glyphname = Zayin;
lastChange = "2017-01-13 16:56:44 +0000";
layers = (
{
layerId = UUID0;
paths = (
{
closed = 1;
nodes = (
"457 0 LINE",
"305 434 LINE",
"457 860 LINE",
"78 860 LINE",
"230 434 LINE",
"78 0 LINE"
);
},
{
closed = 1;
nodes = (
"268 338 LINE",
"343 74 LINE",
"191 74 LINE"
);
},
{
closed = 1;
nodes = (
"193 786 LINE",
"342 786 LINE",
"268 550 LINE"
);
}
);
width = 535;
}
);
unicode = 10A78;
},
{
glyphname = Dhaleth;
lastChange = "2017-01-13 16:56:44 +0000";
layers = (
{
layerId = UUID0;
paths = (
{
closed = 1;
nodes = (
"190 0 LINE",
"190 259 LINE",
"376 259 LINE",
"376 0 LINE",
"459 0 LINE",
"459 859 LINE",
"376 859 LINE",
"376 625 LINE",
"190 625 LINE",
"190 859 LINE",
"107 859 LINE",
"107 0 LINE"
);
},
{
closed = 1;
nodes = (
"190 552 LINE",
"376 552 LINE",
"376 332 LINE",
"190 332 LINE"
);
}
);
width = 566;
}
);
unicode = 10A79;
},
{
glyphname = Yeh;
lastChange = "2017-01-13 16:56:44 +0000";
layers = (
{
layerId = UUID0;
paths = (
{
closed = 1;
nodes = (
"313 0 LINE",
"313 563 LINE",
"381 581 OFFCURVE",
"435 643 OFFCURVE",
"435 715 CURVE SMOOTH",
"435 803 OFFCURVE",
"358 874 OFFCURVE",
"271 874 CURVE SMOOTH",
"184 874 OFFCURVE",
"107 803 OFFCURVE",
"107 715 CURVE SMOOTH",
"107 643 OFFCURVE",
"161 581 OFFCURVE",
"229 563 CURVE",
"229 0 LINE"
);
},
{
closed = 1;
nodes = (
"226 633 OFFCURVE",
"188 670 OFFCURVE",
"188 716 CURVE SMOOTH",
"188 761 OFFCURVE",
"226 798 OFFCURVE",
"271 798 CURVE SMOOTH",
"317 798 OFFCURVE",
"354 761 OFFCURVE",
"354 716 CURVE SMOOTH",
"354 670 OFFCURVE",
"317 633 OFFCURVE",
"271 633 CURVE SMOOTH"
);
}
);
width = 542;
}
);
unicode = 10A7A;
},
{
glyphname = Thaw;
lastChange = "2017-01-13 16:56:44 +0000";
layers = (
{
layerId = UUID0;
paths = (
{
closed = 1;
nodes = (
"358 -15 OFFCURVE",
"435 56 OFFCURVE",
"435 143 CURVE SMOOTH",
"435 216 OFFCURVE",
"381 278 OFFCURVE",
"313 296 CURVE",
"313 563 LINE",
"381 581 OFFCURVE",
"435 643 OFFCURVE",
"435 715 CURVE SMOOTH",
"435 803 OFFCURVE",
"358 874 OFFCURVE",
"271 874 CURVE SMOOTH",
"184 874 OFFCURVE",
"107 803 OFFCURVE",
"107 715 CURVE SMOOTH",
"107 643 OFFCURVE",
"161 581 OFFCURVE",
"229 563 CURVE",
"229 296 LINE",
"161 278 OFFCURVE",
"107 216 OFFCURVE",
"107 143 CURVE SMOOTH",
"107 56 OFFCURVE",
"184 -15 OFFCURVE",
"271 -15 CURVE SMOOTH"
);
},
{
closed = 1;
nodes = (
"226 61 OFFCURVE",
"188 98 OFFCURVE",
"188 144 CURVE SMOOTH",
"188 189 OFFCURVE",
"226 226 OFFCURVE",
"271 226 CURVE SMOOTH",
"317 226 OFFCURVE",
"354 189 OFFCURVE",
"354 144 CURVE SMOOTH",
"354 98 OFFCURVE",
"317 61 OFFCURVE",
"271 61 CURVE SMOOTH"
);
},
{
closed = 1;
nodes = (
"226 633 OFFCURVE",
"188 670 OFFCURVE",
"188 716 CURVE SMOOTH",
"188 761 OFFCURVE",
"226 798 OFFCURVE",
"271 798 CURVE SMOOTH",
"317 798 OFFCURVE",
"354 761 OFFCURVE",
"354 716 CURVE SMOOTH",
"354 670 OFFCURVE",
"317 633 OFFCURVE",
"271 633 CURVE SMOOTH"
);
}
);
width = 542;
}
);
unicode = 10A7B;
},
{
glyphname = Theth;
lastChange = "2017-01-13 16:56:44 +0000";
layers = (
{
layerId = UUID0;
paths = (
{
closed = 1;
nodes = (
"264 0 LINE",
"264 386 LINE",
"449 386 LINE",
"449 0 LINE",
"532 0 LINE",
"532 459 LINE",
"264 459 LINE",
"264 563 LINE",
"332 581 OFFCURVE",
"386 643 OFFCURVE",
"386 715 CURVE SMOOTH",
"386 803 OFFCURVE",
"310 874 OFFCURVE",
"222 874 CURVE SMOOTH",
"135 874 OFFCURVE",
"59 803 OFFCURVE",
"59 715 CURVE SMOOTH",
"59 643 OFFCURVE",
"112 581 OFFCURVE",
"181 563 CURVE",
"181 0 LINE"
);
},
{
closed = 1;
nodes = (
"177 633 OFFCURVE",
"139 670 OFFCURVE",
"139 716 CURVE SMOOTH",
"139 761 OFFCURVE",
"177 798 OFFCURVE",
"222 798 CURVE SMOOTH",
"269 798 OFFCURVE",
"305 761 OFFCURVE",
"305 716 CURVE SMOOTH",
"305 670 OFFCURVE",
"269 633 OFFCURVE",
"222 633 CURVE SMOOTH"
);
}
);
width = 640;
}
);
unicode = 10A7C;
},
{
glyphname = NumberOne;
lastChange = "2017-01-13 16:56:44 +0000";
layers = (
{
layerId = UUID0;
paths = (
{
closed = 1;
nodes = (
"229 0 LINE",
"229 859 LINE",
"146 859 LINE",
"146 0 LINE"
);
}
);
width = 376;
}
);
unicode = 10A7D;
},
{
glyphname = Number;
lastChange = "2017-01-13 16:56:44 +0000";
layers = (
{
layerId = UUID0;
paths = (
{
closed = 1;
nodes = (
"473 0 LINE",
"473 874 LINE",
"59 632 LINE",
"59 597 LINE",
"390 384 LINE",
"390 0 LINE"
);
},
{
closed = 1;
nodes = (
"178 609 LINE",
"178 616 LINE",
"390 736 LINE",
"390 475 LINE"
);
}
);
width = 580;
}
);
unicode = 10A7E;
},
{
glyphname = NumberMarker;
lastChange = "2017-01-13 16:56:44 +0000";
layers = (
{
layerId = UUID0;
paths = (
{
closed = 1;
nodes = (
"459 0 LINE",
"459 859 LINE",
"107 859 LINE",
"107 0 LINE"
);
},
{
closed = 1;
nodes = (
"190 197 LINE",
"376 197 LINE",
"376 73 LINE",
"190 73 LINE"
);
},
{
closed = 1;
nodes = (
"190 394 LINE",
"376 394 LINE",
"376 271 LINE",
"190 271 LINE"
);
},
{
closed = 1;
nodes = (
"190 590 LINE",
"376 590 LINE",
"376 467 LINE",
"190 467 LINE"
);
},
{
closed = 1;
nodes = (
"190 786 LINE",
"376 786 LINE",
"376 663 LINE",
"190 663 LINE"
);
}
);
width = 566;
}
);
unicode = 10A7F;
},
